<?xml version="1.0" encoding="UTF-8" standalone="no"?>
<svg width="298px" height="75px" viewBox="0 0 298 75" version="1.1" xmlns="http://www.w3.org/2000/svg" xmlns:xlink="http://www.w3.org/1999/xlink" xmlns:sketch="http://www.bohemiancoding.com/sketch/ns">
    <!-- Generator: Sketch 3.3.2 (12043) - http://www.bohemiancoding.com/sketch -->
    <title>kinesis_logo</title>
    <desc>Created with Sketch.</desc>
    <defs></defs>
    <g id="Page-1" stroke="none" stroke-width="1" fill="none" fill-rule="evenodd" sketch:type="MSPage">
        <g id="kinesis_logo" sketch:type="MSLayerGroup" transform="translate(0.000000, -3.000000)">
            <g id="Page-1" sketch:type="MSShapeGroup">
                <g id="LOGO-KINESIS-PRODUCENT-SPRZETU-DO-FIZJOTERAPII">
                    <g id="logo" fill="#D50016">
                        <path d="M29.1647727,3.08608696 L50.3522727,3.08608696 L18.6034091,27.846 L39.6443182,53.5724348 L16.7522727,53.5724348 L1.30568182,34.3742609 L3.64772727,23.4203478 L29.1647727,3.08608696 L29.1647727,3.08608696 Z" id="Fill-11"></path>
                        <path d="M55.65,3.08608696 L74.0420455,3.08608696 L70.7522727,15.2337391 L52.7727273,15.2337391 L55.65,3.08608696 L55.65,3.08608696 Z" id="Fill-12"></path>
                        <path d="M50.9897727,22.7183478 L69.0340909,22.6776522 L61.4556818,53.5724348 L43.8136364,53.5724348 L50.9897727,22.7183478 L50.9897727,22.7183478 Z" id="Fill-13"></path>
                        <path d="M82.2443182,3.08608696 L114.392045,3.08608696 C128.307955,3.72026087 133.073864,8.41043478 130.956818,17.3397391 L121.554545,53.5724348 L103.564773,53.5724348 L112.234091,18.9946957 C112.288636,15.1387826 110.781818,14.7046957 97.2272727,15.0607826 L87.5181818,53.5724348 L69.6204545,53.5724348 L82.2443182,3.08608696 L82.2443182,3.08608696 Z" id="Fill-14"></path>
                        <path d="M284.219318,3.0453913 C282.194318,6.97930435 282.436364,7.04713043 287.894318,14.2536522 C292.714773,19.3406087 295.3125,23.6068696 296.669318,27.3949565 C298.414773,32.9702609 296.338636,38.4031304 291.398864,43.7274783 C286.070455,49.0653913 279.518182,52.4973913 272.819318,53.1586957 C264.429545,53.8233913 256.506818,53.5724348 248.492045,53.5588696 L251.873864,40.7092174 L268.213636,40.6685217 C278.771591,39.8071304 280.159091,33.54 276.521591,28.9312174 L266.921591,16.7157391 C263.938636,11.2998261 262.540909,9.204 265.895455,3.09965217 L284.219318,3.0453913 L284.219318,3.0453913 Z" id="Fill-20"></path>
                        <path d="M143.209091,3.08608696 L187.752273,3.08608696 L184.663636,14.3994783 L139.864773,14.664 L143.209091,3.08608696 L143.209091,3.08608696 Z" id="Fill-15"></path>
                        <path d="M138.136364,22.2808696 L182.665909,22.0163478 L179.123864,34.4149565 L152.6625,34.3742609 L150.838636,41.1568696 L177.218182,41.2111304 L174.064773,53.5724348 L129.531818,53.5724348 L138.136364,22.2808696 L138.136364,22.2808696 Z" id="Fill-16"></path>
                        <path d="M214.6125,3.08608696 C212.147727,7.8 212.5875,7.40321739 218.048864,14.6233043 C222.869318,19.6966957 225.467045,23.9629565 226.823864,27.7646087 C228.569318,33.3297391 226.493182,38.7592174 221.55,44.1005217 C216.225,49.4384348 209.860227,52.2735652 203.147727,52.9484348 C194.757955,53.6097391 186.620455,53.5724348 178.817045,53.5724348 L182.028409,41.0788696 L198.368182,41.0246087 C208.926136,40.1632174 210.310227,33.9130435 206.676136,29.2873043 L197.076136,17.0752174 C194.093182,11.6694783 192.426136,10.0653913 196.288636,3.08608696 L214.6125,3.08608696 L214.6125,3.08608696 Z" id="Fill-17"></path>
                        <path d="M239.140909,3.08608696 L257.532955,3.08608696 L254.243182,15.2337391 L236.253409,15.2337391 L239.140909,3.08608696 L239.140909,3.08608696 Z" id="Fill-18"></path>
                        <path d="M234.480682,22.7183478 L252.511364,22.6776522 L244.95,53.5724348 L227.304545,53.5724348 L234.480682,22.7183478 L234.480682,22.7183478 Z" id="Fill-19"></path>
                    </g>
                    <g id="napis" transform="translate(0.000000, 57.652174)" fill="#D10014">
                        <path d="M0,16.5461739 L2.42386364,2.82156522 L6.37840909,2.82156522 C7.57840909,2.82156522 8.44431818,2.95382609 9.01704545,3.20478261 C10.0159091,3.65582609 10.5204545,4.54095652 10.5204545,5.8533913 C10.5204545,6.19930435 10.4795455,6.59608696 10.4147727,7.03356522 C10.0261364,8.8886087 9.21477273,10.106087 7.96363636,10.6893913 C7.20340909,11.0454783 5.93863636,11.2184348 4.16931818,11.2184348 L3.23522727,16.5461739 L0,16.5461739 L0,16.5461739 Z M4.61931818,8.75634783 L4.74204545,8.75634783 C5.65909091,8.75634783 6.3,8.55626087 6.64431818,8.20017391 C6.85909091,7.9593913 7.04318182,7.49817391 7.18977273,6.80634783 L7.24431818,6.30443478 C7.24431818,5.88052174 7.11136364,5.58886957 6.85909091,5.44304348 C6.68522727,5.33791304 6.41931818,5.28365217 6.03409091,5.28365217 L5.76477273,5.28365217 L5.56704545,5.28365217 L5.21931818,5.28365217 L4.61931818,8.75634783 L4.61931818,8.75634783 Z M10.0261364,16.5461739 L12.45,2.82156522 L17.3113636,2.82156522 C19.5102273,2.82156522 20.6147727,3.73382609 20.6147727,5.56173913 L20.5602273,6.35869565 C20.4,7.31165217 20.1340909,8.05434783 19.7625,8.55626087 C19.4011364,9.06156522 18.8693182,9.45834783 18.1909091,9.75 L18.1909091,9.78730435 C18.5897727,9.78730435 18.9238636,9.97382609 19.1625,10.3434783 C19.4147727,10.7165217 19.5340909,11.1268696 19.5340909,11.5507826 L19.0704545,14.7826957 L19.0704545,15.2473043 L19.0704545,15.5898261 C19.0704545,16.0544348 19.1352273,16.3053913 19.2545455,16.3596522 L19.2170455,16.5461739 L15.6988636,16.5461739 C15.6477273,16.4003478 15.6204545,16.268087 15.6204545,16.1324348 C15.6204545,15.9866087 15.675,15.5898261 15.7806818,14.9285217 L16.0329545,13.3922609 C16.1147727,12.9683478 16.1522727,12.5953043 16.1522727,12.2934783 C16.1522727,11.934 16.0875,11.655913 15.9681818,11.4693913 C15.8454545,11.2726957 15.6204545,11.1675652 15.3136364,11.1404348 L14.2227273,11.1404348 L13.2647727,16.5461739 L10.0261364,16.5461739 L10.0261364,16.5461739 Z M14.6625,8.63765217 L15.7806818,8.63765217 C16.1659091,8.63765217 16.4590909,8.52913043 16.6875,8.30530435 C16.9909091,8.01365217 17.2056818,7.50834783 17.325,6.79617391 L17.325,6.42313043 C17.325,5.94834783 17.1,5.62956522 16.6602273,5.4566087 C16.3670455,5.35147826 15.9,5.28365217 15.2488636,5.28365217 L14.6625,8.63765217 L14.6625,8.63765217 Z M20.9352273,12.6088696 L21.9988636,6.56895652 C22.2920455,5.08695652 22.9431818,3.99834783 23.9693182,3.33704348 C24.8079545,2.76730435 25.875,2.48921739 27.1670455,2.48921739 C28.2579545,2.48921739 29.1238636,2.7266087 29.775,3.19121739 C30.5215909,3.72026087 30.8931818,4.53078261 30.8931818,5.60243478 C30.8931818,5.7753913 30.8931818,5.90765217 30.8829545,6.02634783 C30.8693182,6.13147826 30.8420455,6.318 30.8011364,6.56895652 L29.7375,12.6088696 C29.3897727,14.0806957 28.8715909,15.1387826 28.1522727,15.7763478 C27.3409091,16.5054783 26.1272727,16.8751304 24.5147727,16.8751304 C23.2125,16.8751304 22.2511364,16.569913 21.6545455,15.9764348 C21.1193182,15.444 20.8534091,14.6775652 20.8534091,13.6703478 L20.8534091,13.2464348 C20.8534091,13.1277391 20.8806818,12.914087 20.9352273,12.6088696 L20.9352273,12.6088696 L20.9352273,12.6088696 Z M25.3295455,6.27730435 L25.2340909,6.56895652 L24.1704545,12.6495652 L24.1159091,13.2193043 C24.1159091,13.5787826 24.1840909,13.8670435 24.3306818,14.0806957 C24.4772727,14.2909565 24.7159091,14.3994783 25.0363636,14.3994783 C25.4488636,14.3994783 25.7693182,14.240087 25.9806818,13.9348696 C26.2090909,13.6296522 26.3659091,13.1413043 26.4886364,12.5037391 L27.525,6.56895652 L27.5931818,6.27730435 C27.5931818,5.76182609 27.5113636,5.41591304 27.3511364,5.23278261 C27.1943182,5.05982609 26.9659091,4.96486957 26.6727273,4.96486957 C26.3659091,4.96486957 26.0863636,5.05982609 25.8613636,5.25652174 C25.6363636,5.47017391 25.4625,5.80252174 25.3295455,6.27730435 L25.3295455,6.27730435 L25.3295455,6.27730435 Z M30.5897727,16.5461739 L33.0136364,2.808 L37.1011364,2.808 C38.6454545,2.808 39.7363636,3.09965217 40.3636364,3.69313043 C40.8306818,4.1306087 41.0693182,4.72747826 41.0693182,5.4566087 C41.0693182,5.67026087 41.0556818,5.86695652 41.0284091,6.05347826 C41.0011364,6.22643478 40.9875,6.38243478 40.9772727,6.52826087 L39.8318182,12.981913 C39.6306818,14.2129565 39.1125,15.1286087 38.2738636,15.722087 C37.5,16.268087 36.4738636,16.5461739 35.1818182,16.5461739 L30.5897727,16.5461739 L30.5897727,16.5461739 Z M34.2647727,14.0671304 C34.9977273,14.0671304 35.4886364,14.0128696 35.7545455,13.9077391 C36.1943182,13.7110435 36.5011364,13.2871304 36.675,12.6495652 L37.6602273,7.00643478 L37.725,6.30443478 C37.725,5.92121739 37.6056818,5.67026087 37.3670455,5.5346087 C37.0875,5.36504348 36.5693182,5.27008696 35.8090909,5.27008696 L34.2647727,14.0671304 L34.2647727,14.0671304 Z M43.1863636,2.82156522 L46.4215909,2.82156522 L44.5568182,13.3244348 C44.5568182,14.04 44.8909091,14.3994783 45.5556818,14.3994783 C45.9170455,14.3994783 46.1965909,14.2909565 46.3806818,14.0942609 C46.5818182,13.8806087 46.7284091,13.5787826 46.8068182,13.1786087 L48.6477273,2.82156522 L51.9204545,2.82156522 L50.1511364,12.8225217 C49.8579545,14.1586957 49.3125,15.165913 48.5113636,15.8441739 C47.7136364,16.5326087 46.6363636,16.8751304 45.2625,16.8751304 C43.9704545,16.8751304 42.9852273,16.6241739 42.3204545,16.1324348 C41.6420455,15.6305217 41.3079545,14.8742609 41.3079545,13.8568696 C41.3079545,13.6025217 41.3352273,13.2871304 41.4034091,12.9005217 L43.1863636,2.82156522 L43.1863636,2.82156522 Z M57.4875,11.1811304 L60.7227273,11.1811304 L60.3647727,13.2193043 C60.1397727,14.4503478 59.4579545,15.4066957 58.3125,16.068 C57.3954545,16.5970435 56.3693182,16.8751304 55.2511364,16.8751304 C53.9727273,16.8751304 53.0420455,16.6377391 52.4284091,16.1595652 C51.8284091,15.6847826 51.5352273,14.942087 51.5352273,13.9213043 C51.5352273,13.4973913 51.5761364,13.0734783 51.6545455,12.6495652 L52.7079545,6.71478261 C52.9329545,5.47017391 53.3727273,4.50365217 54.0511364,3.81521739 C54.9170455,2.92669565 56.1715909,2.48921739 57.7806818,2.48921739 C59.0181818,2.48921739 59.9659091,2.74017391 60.6306818,3.21834783 C61.2852273,3.70669565 61.6159091,4.46295652 61.6159091,5.47017391 C61.6159091,5.60243478 61.6022727,5.76182609 61.5886364,5.93478261 C61.575,6.10434783 61.5511364,6.27730435 61.5238636,6.46382609 L61.4829545,6.71478261 L61.3090909,7.61686957 L58.0465909,7.61686957 L58.2068182,6.71478261 L58.2613636,6.03991304 C58.2613636,5.32434783 57.9954545,4.96486957 57.4602273,4.96486957 C57.0613636,4.96486957 56.7681818,5.03269565 56.5568182,5.17852174 C56.2772727,5.3786087 56.0897727,5.74826087 55.9977273,6.27730435 L54.7465909,13.2193043 L54.7465909,13.538087 C54.7465909,13.8806087 54.8659091,14.1213913 55.0772727,14.2536522 C55.2375,14.3587826 55.4386364,14.3994783 55.6909091,14.3994783 C56.4102273,14.3994783 56.8909091,13.9484348 57.1295455,13.0463478 L57.2488636,12.4630435 L57.4875,11.1811304 L57.4875,11.1811304 Z M61.35,16.5461739 L63.8011364,2.78086957 L71.1920455,2.78086957 L70.6977273,5.52443478 L66.5454545,5.52443478 L66.1056818,8.06791304 L70.1386364,8.06791304 L69.6477273,10.8216522 L65.5977273,10.8216522 L65.0659091,13.8026087 L69.4875,13.8026087 L69.0068182,16.5461739 L61.35,16.5461739 L61.35,16.5461739 Z M70.4727273,16.5461739 L72.9102273,2.82156522 L76.2511364,2.82156522 L77.3556818,10.5028696 L77.4238636,10.5028696 L78.4772727,2.82156522 L81.5659091,2.82156522 L79.1420455,16.5461739 L75.7840909,16.5461739 L74.6284091,8.86147826 L74.6011364,8.90217391 L73.5204545,16.5461739 L70.4727273,16.5461739 L70.4727273,16.5461739 Z M82.8715909,16.5461739 L84.8147727,5.56173913 L82.2579545,5.56173913 L82.7386364,2.82156522 L91.1659091,2.82156522 L90.6886364,5.56173913 L88.05,5.56173913 L86.1068182,16.5461739 L82.8715909,16.5461739 L82.8715909,16.5461739 Z M96.3340909,11.9746957 L99.3170455,11.9746957 L99.0886364,13.0463478 L99.0886364,13.4193913 C99.0886364,13.7483478 99.1840909,13.9891304 99.3579545,14.1586957 C99.5420455,14.318087 99.7704545,14.3994783 100.063636,14.3994783 C100.875,14.3994783 101.365909,13.9348696 101.539773,13.0090435 C101.539773,12.4393043 101.195455,11.8831304 100.5,11.3506957 C99.8079545,10.808087 99.1295455,10.2790435 98.4647727,9.75 C97.7454545,9.02086957 97.3840909,8.17304348 97.3840909,7.19295652 L97.3840909,6.71478261 C97.425,6.56895652 97.4386364,6.46382609 97.4522727,6.38243478 L97.5443182,6.03991304 C97.9056818,4.84617391 98.4511364,3.96104348 99.1704545,3.36417391 C99.9034091,2.78086957 100.888636,2.48921739 102.126136,2.48921739 C103.165909,2.48921739 104.004545,2.74017391 104.628409,3.21834783 C105.334091,3.77452174 105.695455,4.58165217 105.695455,5.65669565 C105.695455,5.92121739 105.668182,6.25017391 105.603409,6.65034783 L105.5625,6.942 L102.593182,6.942 C102.630682,6.65034783 102.657955,6.35869565 102.657955,6.0806087 C102.657955,5.67026087 102.593182,5.3786087 102.446591,5.20565217 C102.313636,5.04626087 102.085227,4.96486957 101.778409,4.96486957 C101.5125,4.96486957 101.2875,5.01913043 101.113636,5.12426087 C100.861364,5.29721739 100.673864,5.58886957 100.568182,5.99921739 C100.568182,6.58252174 100.915909,7.13869565 101.621591,7.68130435 C102.286364,8.1866087 102.951136,8.68852174 103.605682,9.19382609 C104.311364,9.86869565 104.669318,10.6622609 104.669318,11.5507826 L104.669318,11.9746957 L104.577273,12.558 C104.311364,14.0942609 103.697727,15.2201739 102.753409,15.9357391 C101.938636,16.5563478 100.888636,16.8751304 99.5829545,16.8751304 C98.5704545,16.8751304 97.7318182,16.6513043 97.0909091,16.2138261 C96.3613636,15.722087 96,15.0336522 96,14.1349565 L96.0545455,13.5109565 L96.3340909,11.9746957 L96.3340909,11.9746957 Z M105.402273,16.5461739 L107.826136,2.82156522 L111.780682,2.82156522 C112.967045,2.82156522 113.846591,2.95382609 114.415909,3.20478261 C115.414773,3.65582609 115.922727,4.54095652 115.922727,5.8533913 C115.922727,6.19930435 115.881818,6.59608696 115.817045,7.03356522 C115.428409,8.8886087 114.617045,10.106087 113.365909,10.6893913 C112.605682,11.0454783 111.340909,11.2184348 109.571591,11.2184348 L108.6375,16.5461739 L105.402273,16.5461739 L105.402273,16.5461739 Z M110.021591,8.75634783 L110.144318,8.75634783 C111.061364,8.75634783 111.702273,8.55626087 112.032955,8.20017391 C112.261364,7.9593913 112.445455,7.49817391 112.592045,6.80634783 L112.646591,6.30443478 C112.646591,5.88052174 112.513636,5.58886957 112.261364,5.44304348 C112.0875,5.33791304 111.807955,5.28365217 111.436364,5.28365217 L111.167045,5.28365217 L110.969318,5.28365217 L110.621591,5.28365217 L110.021591,8.75634783 L110.021591,8.75634783 Z M115.428409,16.5461739 L117.852273,2.82156522 L122.7,2.82156522 C124.9125,2.82156522 126.017045,3.73382609 126.017045,5.56173913 L125.9625,6.35869565 C125.802273,7.31165217 125.536364,8.05434783 125.164773,8.55626087 C124.803409,9.06156522 124.271591,9.45834783 123.593182,9.75 L123.593182,9.78730435 C123.992045,9.78730435 124.326136,9.97382609 124.564773,10.3434783 C124.803409,10.7165217 124.936364,11.1268696 124.936364,11.5507826 L124.472727,14.7826957 L124.472727,15.2473043 L124.472727,15.5898261 C124.472727,16.0544348 124.5375,16.3053913 124.656818,16.3596522 L124.619318,16.5461739 L121.101136,16.5461739 C121.05,16.4003478 121.009091,16.268087 121.009091,16.1324348 C121.009091,15.9866087 121.077273,15.5898261 121.182955,14.9285217 L121.435227,13.3922609 C121.517045,12.9683478 121.540909,12.5953043 121.540909,12.2934783 C121.540909,11.934 121.489773,11.655913 121.370455,11.4693913 C121.234091,11.2726957 121.022727,11.1675652 120.715909,11.1404348 L119.611364,11.1404348 L118.667045,16.5461739 L115.428409,16.5461739 L115.428409,16.5461739 Z M120.064773,8.63765217 L121.182955,8.63765217 C121.568182,8.63765217 121.861364,8.52913043 122.086364,8.30530435 C122.393182,8.01365217 122.594318,7.50834783 122.727273,6.79617391 L122.727273,6.42313043 C122.727273,5.94834783 122.502273,5.62956522 122.0625,5.4566087 C121.769318,5.35147826 121.302273,5.28365217 120.651136,5.28365217 L120.064773,8.63765217 L120.064773,8.63765217 Z M125.096591,16.5461739 L125.522727,14.1078261 L131.130682,5.56173913 L127.322727,5.56173913 L127.8,2.82156522 L135.139773,2.82156522 L134.686364,5.40234783 L129.160227,13.8297391 L133.367045,13.8297391 L132.9,16.5461739 L125.096591,16.5461739 L125.096591,16.5461739 Z M140.863636,16.5461739 C140.318182,16.9802609 139.960227,17.3397391 139.8,17.6178261 C139.704545,17.750087 139.653409,17.9637391 139.626136,18.2282609 C139.626136,18.4385217 139.680682,18.6250435 139.786364,18.7708696 C139.892045,18.9166957 140.106818,18.9946957 140.413636,18.9946957 C140.625,18.9946957 140.785227,18.9811304 140.904545,18.9675652 C141.023864,18.9438261 141.105682,18.9302609 141.156818,18.9031304 L140.931818,20.1341739 C140.826136,20.1884348 140.652273,20.2393043 140.413636,20.28 C140.171591,20.3342609 139.932955,20.3478261 139.704545,20.3478261 C139.094318,20.3478261 138.613636,20.2155652 138.269318,19.9476522 C137.921591,19.6695652 137.747727,19.2863478 137.747727,18.7573043 C137.815909,18.374087 137.9625,18.0281739 138.214773,17.6958261 C138.548864,17.2583478 139.0125,16.8751304 139.626136,16.5461739 L133.926136,16.5461739 L136.377273,2.78086957 L143.768182,2.78086957 L143.273864,5.52443478 L139.107955,5.52443478 L138.668182,8.06791304 L142.714773,8.06791304 L142.223864,10.8216522 L138.173864,10.8216522 L137.642045,13.8026087 L142.05,13.8026087 L141.569318,16.5461739 L140.863636,16.5461739 L140.863636,16.5461739 Z M145.220455,16.5461739 L147.163636,5.56173913 L144.606818,5.56173913 L145.0875,2.82156522 L153.514773,2.82156522 L153.0375,5.56173913 L150.398864,5.56173913 L148.455682,16.5461739 L145.220455,16.5461739 L145.220455,16.5461739 Z M154.646591,2.82156522 L157.881818,2.82156522 L156.034091,13.3244348 C156.034091,14.04 156.364773,14.3994783 157.029545,14.3994783 C157.390909,14.3994783 157.656818,14.2909565 157.857955,14.0942609 C158.055682,13.8806087 158.202273,13.5787826 158.284091,13.1786087 L160.121591,2.82156522 L163.384091,2.82156522 L161.625,12.8225217 C161.331818,14.1586957 160.786364,15.165913 159.988636,15.8441739 C159.1875,16.5326087 158.110227,16.8751304 156.739773,16.8751304 C155.447727,16.8751304 154.4625,16.6241739 153.780682,16.1324348 C153.115909,15.6305217 152.781818,14.8742609 152.781818,13.8568696 C152.781818,13.6025217 152.809091,13.2871304 152.863636,12.9005217 L154.646591,2.82156522 L154.646591,2.82156522 Z M168.644318,16.5461739 L171.081818,2.808 L175.155682,2.808 C176.7,2.808 177.790909,3.09965217 178.431818,3.69313043 C178.898864,4.1306087 179.1375,4.72747826 179.1375,5.4566087 C179.1375,5.67026087 179.123864,5.86695652 179.096591,6.05347826 C179.069318,6.22643478 179.055682,6.38243478 179.045455,6.52826087 L177.9,12.981913 C177.685227,14.2129565 177.167045,15.1286087 176.342045,15.722087 C175.568182,16.268087 174.528409,16.5461739 173.25,16.5461739 L168.644318,16.5461739 L168.644318,16.5461739 Z M172.332955,14.0671304 C173.065909,14.0671304 173.556818,14.0128696 173.822727,13.9077391 C174.2625,13.7110435 174.569318,13.2871304 174.743182,12.6495652 L175.728409,7.00643478 L175.779545,6.30443478 C175.779545,5.92121739 175.673864,5.67026087 175.435227,5.5346087 C175.155682,5.36504348 174.6375,5.27008696 173.877273,5.27008696 L172.332955,14.0671304 L172.332955,14.0671304 Z M179.481818,12.6088696 L180.548864,6.56895652 C180.842045,5.08695652 181.493182,3.99834783 182.519318,3.33704348 C183.357955,2.76730435 184.425,2.48921739 185.717045,2.48921739 C186.807955,2.48921739 187.673864,2.7266087 188.325,3.19121739 C189.071591,3.72026087 189.443182,4.53078261 189.443182,5.60243478 C189.443182,5.7753913 189.443182,5.90765217 189.429545,6.02634783 C189.415909,6.13147826 189.392045,6.318 189.364773,6.56895652 L188.284091,12.6088696 C187.953409,14.0806957 187.421591,15.1387826 186.715909,15.7763478 C185.8875,16.5054783 184.677273,16.8751304 183.064773,16.8751304 C181.759091,16.8751304 180.801136,16.569913 180.201136,15.9764348 C179.669318,15.444 179.403409,14.6775652 179.403409,13.6703478 L179.403409,13.2464348 C179.403409,13.1277391 179.430682,12.914087 179.481818,12.6088696 L179.481818,12.6088696 L179.481818,12.6088696 Z M183.879545,6.27730435 L183.784091,6.56895652 L182.720455,12.6495652 L182.665909,13.2193043 C182.665909,13.5787826 182.734091,13.8670435 182.880682,14.0806957 C183.027273,14.2909565 183.265909,14.3994783 183.586364,14.3994783 C183.998864,14.3994783 184.315909,14.240087 184.544318,13.9348696 C184.755682,13.6296522 184.929545,13.1413043 185.035227,12.5037391 L186.088636,6.56895652 L186.143182,6.27730435 C186.143182,5.76182609 186.061364,5.41591304 185.901136,5.23278261 C185.740909,5.05982609 185.515909,4.96486957 185.222727,4.96486957 C184.915909,4.96486957 184.65,5.05982609 184.425,5.25652174 C184.196591,5.47017391 184.0125,5.80252174 183.879545,6.27730435 L183.879545,6.27730435 L183.879545,6.27730435 Z M195.317045,16.5461739 L197.768182,2.78086957 L205.411364,2.78086957 L204.917045,5.52443478 L200.536364,5.52443478 L200.110227,7.9593913 L204.132955,7.9593913 L203.625,10.730087 L199.619318,10.730087 L198.593182,16.5461739 L195.317045,16.5461739 L195.317045,16.5461739 Z M204.545455,16.5461739 L206.996591,2.78086957 L210.272727,2.78086957 L207.821591,16.5461739 L204.545455,16.5461739 L204.545455,16.5461739 Z M208.885227,16.5461739 L209.311364,14.1078261 L214.919318,5.56173913 L211.111364,5.56173913 L211.588636,2.82156522 L218.928409,2.82156522 L218.475,5.40234783 L212.948864,13.8297391 L217.169318,13.8297391 L216.688636,16.5461739 L208.885227,16.5461739 L208.885227,16.5461739 Z M223.268182,2.82156522 L226.544318,2.82156522 L224.706818,13.2464348 L224.652273,13.538087 C224.468182,14.5453043 224.042045,15.3524348 223.35,15.9764348 C222.668182,16.5970435 221.829545,16.9022609 220.806818,16.9022609 C219.685227,16.9022609 218.846591,16.692 218.273864,16.2409565 C217.701136,15.789913 217.421591,15.1387826 217.421591,14.2909565 L217.421591,13.8161739 C217.4625,13.6703478 217.489773,13.5652174 217.503409,13.5109565 L217.769318,11.9746957 L220.353409,11.9746957 L219.992045,14.0026957 C219.992045,14.1993913 220.032955,14.318087 220.125,14.3587826 C220.220455,14.4130435 220.367045,14.4367826 220.564773,14.4367826 C220.793182,14.4367826 220.95,14.4130435 221.072727,14.3587826 C221.192045,14.318087 221.270455,14.1993913 221.297727,14.0026957 L223.268182,2.82156522 L223.268182,2.82156522 Z M226.411364,12.6088696 L227.488636,6.56895652 C227.781818,5.08695652 228.436364,3.99834783 229.448864,3.33704348 C230.301136,2.76730435 231.364773,2.48921739 232.656818,2.48921739 C233.747727,2.48921739 234.613636,2.7266087 235.268182,3.19121739 C236.011364,3.72026087 236.386364,4.53078261 236.386364,5.60243478 C236.386364,5.7753913 236.386364,5.90765217 236.372727,6.02634783 C236.359091,6.13147826 236.331818,6.318 236.290909,6.56895652 L235.227273,12.6088696 C234.879545,14.0806957 234.361364,15.1387826 233.642045,15.7763478 C232.830682,16.5054783 231.606818,16.8751304 230.007955,16.8751304 C228.688636,16.8751304 227.730682,16.569913 227.130682,15.9764348 C226.6125,15.444 226.346591,14.6775652 226.346591,13.6703478 L226.346591,13.2464348 C226.346591,13.1277391 226.370455,12.914087 226.425,12.6088696 L226.411364,12.6088696 L226.411364,12.6088696 Z M230.819318,6.27730435 L230.727273,6.56895652 L229.646591,12.6495652 L229.595455,13.2193043 C229.595455,13.5787826 229.673864,13.8670435 229.820455,14.0806957 C229.967045,14.2909565 230.192045,14.3994783 230.5125,14.3994783 C230.938636,14.3994783 231.259091,14.240087 231.470455,13.9348696 C231.698864,13.6296522 231.859091,13.1413043 231.978409,12.5037391 L233.069318,6.27730435 C233.069318,5.76182609 232.990909,5.41591304 232.830682,5.23278261 C232.670455,5.05982609 232.445455,4.96486957 232.152273,4.96486957 C231.845455,4.96486957 231.579545,5.05982609 231.351136,5.25652174 C231.126136,5.47017391 230.952273,5.80252174 230.819318,6.27730435 L230.819318,6.27730435 L230.819318,6.27730435 Z M238.182955,16.5461739 L240.139773,5.56173913 L237.582955,5.56173913 L238.063636,2.82156522 L246.480682,2.82156522 L246,5.56173913 L243.378409,5.56173913 L241.418182,16.5461739 L238.182955,16.5461739 L238.182955,16.5461739 Z M245.307955,16.5461739 L247.745455,2.78086957 L255.15,2.78086957 L254.642045,5.52443478 L250.489773,5.52443478 L250.05,8.06791304 L254.096591,8.06791304 L253.605682,10.8216522 L249.555682,10.8216522 L249.023864,13.8026087 L253.431818,13.8026087 L252.951136,16.5461739 L245.307955,16.5461739 L245.307955,16.5461739 Z M254.389773,16.5461739 L256.813636,2.82156522 L261.675,2.82156522 C263.884091,2.82156522 264.988636,3.73382609 264.988636,5.56173913 L264.923864,6.35869565 C264.763636,7.31165217 264.497727,8.05434783 264.136364,8.55626087 C263.764773,9.06156522 263.246591,9.45834783 262.554545,9.75 L262.554545,9.78730435 C262.967045,9.78730435 263.284091,9.97382609 263.526136,10.3434783 C263.778409,10.7165217 263.897727,11.1268696 263.897727,11.5507826 L263.444318,14.7826957 L263.444318,15.2473043 L263.444318,15.5898261 C263.444318,16.0544348 263.498864,16.3053913 263.618182,16.3596522 L263.590909,16.5461739 L260.076136,16.5461739 C260.011364,16.4003478 259.984091,16.268087 259.984091,16.1324348 C259.984091,15.9866087 260.035227,15.5898261 260.144318,14.9285217 L260.410227,13.3922609 C260.475,12.9683478 260.515909,12.5953043 260.515909,12.2934783 C260.515909,11.934 260.447727,11.655913 260.328409,11.4693913 C260.209091,11.2726957 259.997727,11.1675652 259.690909,11.1404348 L258.586364,11.1404348 L257.625,16.5461739 L254.389773,16.5461739 L254.389773,16.5461739 Z M259.022727,8.63765217 L260.144318,8.63765217 C260.529545,8.63765217 260.836364,8.52913043 261.061364,8.30530435 C261.354545,8.01365217 261.569318,7.50834783 261.688636,6.79617391 L261.688636,6.42313043 C261.688636,5.94834783 261.473864,5.62956522 261.034091,5.4566087 C260.740909,5.35147826 260.263636,5.28365217 259.609091,5.28365217 L259.022727,8.63765217 L259.022727,8.63765217 Z M264.030682,16.5461739 L269.478409,2.82156522 L273.392045,2.82156522 L273.9375,16.5461739 L270.664773,16.5461739 L270.715909,13.8941739 L268.159091,13.8941739 L267.306818,16.5461739 L264.030682,16.5461739 L264.030682,16.5461739 Z M268.960227,11.4693913 L270.811364,11.4693913 L270.954545,5.32434783 L268.960227,11.4693913 L268.960227,11.4693913 Z M275.096591,16.5461739 L277.520455,2.82156522 L281.475,2.82156522 C282.675,2.82156522 283.554545,2.95382609 284.113636,3.20478261 C285.1125,3.65582609 285.617045,4.54095652 285.617045,5.8533913 C285.617045,6.19930435 285.579545,6.59608696 285.511364,7.03356522 C285.126136,8.8886087 284.311364,10.106087 283.060227,10.6893913 C282.303409,11.0454783 281.038636,11.2184348 279.279545,11.2184348 L278.335227,16.5461739 L275.096591,16.5461739 L275.096591,16.5461739 Z M279.719318,8.75634783 L279.838636,8.75634783 C280.769318,8.75634783 281.396591,8.55626087 281.744318,8.20017391 C281.955682,7.9593913 282.143182,7.49817391 282.289773,6.80634783 L282.340909,6.30443478 C282.340909,5.88052174 282.221591,5.58886957 281.955682,5.44304348 C281.781818,5.33791304 281.515909,5.28365217 281.130682,5.28365217 L280.864773,5.28365217 L280.677273,5.28365217 L280.319318,5.28365217 L279.719318,8.75634783 L279.719318,8.75634783 Z M285.310227,16.5461739 L287.747727,2.78086957 L291.023864,2.78086957 L288.572727,16.5461739 L285.310227,16.5461739 L285.310227,16.5461739 Z M290.4,16.5461739 L292.847727,2.78086957 L296.123864,2.78086957 L293.676136,16.5461739 L290.4,16.5461739 L290.4,16.5461739 Z" id="Fill-22"></path>
                    </g>
                </g>
            </g>
        </g>
    </g>
</svg>